<svg xmlns="http://www.w3.org/2000/svg" xmlns:xlink="http://www.w3.org/1999/xlink" viewBox="0 0 147.69 128.31">
    <defs><style>.cls-1{fill:url(#Dégradé_sans_nom_118);}.cls-2{fill:none;stroke:#fff;stroke-linecap:round;stroke-linejoin:round;}</style>
        <linearGradient id="Dégradé_sans_nom_118" y1="68.71" x2="147.69" y2="68.71" gradientUnits="userSpaceOnUse">
            <stop offset="0" stop-color="#09c0dd"/><stop offset="1" stop-color="#b4d673"/></linearGradient></defs><title>Fichier 4</title><g id="Calque_2" data-name="Calque 2"><g id="Interface"><path class="cls-1" d="M103,9.12v.25c22.83,0,44.41,25.74,44.41,53,0,13.66-5,24.22-14.81,31.4-8.75,6.38-21.15,9.78-35.87,9.82-18.57.05-29.21,7.39-38.6,13.87-7.92,5.46-15.41,10.62-26.43,10.62C13.2,128.06.25,116.64.25,100.29c0-18.52,15.83-29,31.51-31.11,14.64-2,24.7-4.76,29.62-12.39,1.79-2.78,3.37-6.9,5.2-11.67C71.68,31.86,78.65,13.69,96.81,10A31.77,31.77,0,0,1,103,9.37V9.12m0,0a31.23,31.23,0,0,0-6.27.63c-24.7,5-28.71,36.24-35.59,46.91-5,7.67-15.26,10.34-29.44,12.28C14.37,71.31,0,82.77,0,100.29s14.21,28,31.73,28c24.24,0,30.92-24.4,65-24.49,28.13-.08,50.93-12.42,50.93-41.47,0-26.71-21.06-53.24-44.66-53.23Z"/><line class="cls-2" x1="92.79" y1="0.5" x2="99.86" y2="20.07"/></g></g></svg>