<svg xmlns="http://www.w3.org/2000/svg" xmlns:xlink="http://www.w3.org/1999/xlink" viewBox="0 0 1216.99 314.54"><defs><linearGradient id="Degrade_sans_nom_104" x1="166.18" y1="157.27" x2="1050.81" y2="157.27" gradientUnits="userSpaceOnUse"><stop offset="0" stop-color="#09c0dd"/><stop offset="0.26" stop-color="#0cc0db"/><stop offset="0.41" stop-color="#14c1d6"/><stop offset="0.54" stop-color="#22c3cd"/><stop offset="0.65" stop-color="#37c6c1"/><stop offset="0.76" stop-color="#51c9b0"/><stop offset="0.85" stop-color="#71cd9c"/><stop offset="0.94" stop-color="#97d285"/><stop offset="1" stop-color="#b4d673"/></linearGradient><linearGradient id="Degrade_sans_nom_104-2" x1="147.55" y1="157.27" x2="1069.44" y2="157.27" xlink:href="#Degrade_sans_nom_104"/><linearGradient id="Degrade_sans_nom_104-3" x1="0" y1="157.27" x2="1216.99" y2="157.27" xlink:href="#Degrade_sans_nom_104"/></defs><title>Fichier 1</title><g id="Calque_2" data-name="Calque 2"><g id="Interface"><g id="Bouton_play" data-name="Bouton play"><polygon points="225.38 216.47 166.18 157.27 225.38 98.06 991.6 98.06 1050.81 157.27 991.6 216.47 225.38 216.47" style="fill:url(#Degrade_sans_nom_104)"/><text transform="translate(334 187.88)" style="font-size:75px;font-family:Futura-Bold, Futura;font-weight:700">TIME <tspan x="212.47" y="0" style="letter-spacing:-0.006985677083333333em">T</tspan><tspan x="252" y="0">O P</tspan><tspan x="397.72" y="0" style="letter-spacing:0.030989583333333334em">L</tspan><tspan x="439.95" y="0" style="letter-spacing:-0.07100260416666666em">A</tspan><tspan x="494.77" y="0">Y</tspan></text><path d="M995.11,88.68l68.6,68.59-68.6,68.59H221.87l-68.59-68.59,68.59-68.59H995.11m1.68-4.06H220.19l-72.64,72.65,72.64,72.65h776.6l72.65-72.65L996.79,84.62Z" style="fill:url(#Degrade_sans_nom_104-2)"/><path d="M1059.59.31l157,157-157,157H157.4l-157-157,157-157h902.19m.13-.31H157.27L0,157.27,157.27,314.54h902.45L1217,157.27,1059.72,0Z" style="fill:url(#Degrade_sans_nom_104-3)"/></g></g></g></svg>