<svg xmlns="http://www.w3.org/2000/svg" viewBox="0 0 330.55 297.8"><title>Fichier 1</title><g id="Calque_2" data-name="Calque 2"><g id="Calque_1-2" data-name="Calque 1"><path d="M129.48,1a82.86,82.86,0,0,1,17.57,2.18A163.62,163.62,0,0,1,225,44.24c5,4.76,10,10,14.78,15.1,14.92,15.85,30.34,32.23,51.47,37.26,1.29.31,2.64.58,3.93.85,5.71,1.17,11.61,2.39,15.2,6.59,3.1,3.62,3.87,8.93,4.49,13.21l5.43,37.56,5.43,37.57c3.08,21.28,6.57,45.4.61,67.61-2.22,8.3-5.38,14.58-9.67,19.19-7.78,8.4-19.66,11.67-29.14,13.58a221.85,221.85,0,0,1-44.15,4c-21.64,0-43.84-2.39-65.32-4.69-20.27-2.18-41.23-4.44-61.83-4.71-2.46,0-5,0-7.46-.06-24.2-.14-49.22-.29-66.14-16.1-13.53-12.65-17.95-32.56-21.5-48.55-1.63-7.33-4.26-16-7-25.17C4.81,167.19-6.66,129.45,8,107.3,26.46,79.56,51.55,54.86,75.81,31c4.59-4.52,9.33-9.18,13.88-13.73C102,7.72,112.7,2.67,123.43,1.36a49.31,49.31,0,0,1,6-.36m0-1a51,51,0,0,0-6.17.36C110.62,1.92,99.13,8.66,89,16.5c-28,28-59.74,57-81.81,90.25C-12.26,136.08,13.1,191.4,20.1,222.91,24,240.66,28.62,259.55,41.9,272c19,17.76,48.26,16.09,74.27,16.43,42.41.56,85.07,9.4,127.16,9.4a223.6,223.6,0,0,0,44.35-4.06c10.88-2.19,22.13-5.73,29.68-13.88,5-5.42,8-12.47,9.9-19.61,5.91-22.06,2.68-45.41-.59-68L315.81,117.1c-.7-4.85-1.53-10-4.72-13.71-4.67-5.46-12.67-6.1-19.66-7.76C263.82,89.05,246.27,63,225.64,43.51A165.64,165.64,0,0,0,147.26,2.2,84.88,84.88,0,0,0,129.48,0Z"/></g></g></svg>