<?xml version="1.0" encoding="utf-8"?>
<!-- Generator: Adobe Illustrator 22.0.1, SVG Export Plug-In . SVG Version: 6.00 Build 0)  -->
<svg version="1.1" id="Calque_1" xmlns="http://www.w3.org/2000/svg" xmlns:xlink="http://www.w3.org/1999/xlink" x="0px" y="0px"
	 viewBox="0 0 147.7 119.2" style="enable-background:new 0 0 147.7 119.2;" xml:space="preserve">
<style type="text/css">
	.st0{fill:#FF0000;}
	.st1{fill:none;stroke:#FFFFFF;stroke-linecap:round;stroke-linejoin:round;}
</style>
<title>Fichier 5</title>
<g id="Calque_2_1_">
	<g id="Interface">
		<path class="st0" d="M103,0v0.2c22.8,0,44.4,25.8,44.4,53c0,13.7-5,24.2-14.8,31.4c-8.8,6.4-21.2,9.8-35.9,9.8
			c-18.6,0.1-29.2,7.4-38.6,13.9c-7.9,5.4-15.4,10.7-26.4,10.7c-18.5,0-31.5-11.5-31.5-27.8c0-18.5,15.8-29,31.5-31.1
			c14.6-2,24.7-4.8,29.6-12.4c1.8-2.8,3.4-6.9,5.2-11.7C71.7,22.7,78.7,4.6,96.8,0.9c2-0.4,4.1-0.6,6.2-0.6V0 M103,0
			c-2.1,0-4.2,0.2-6.3,0.6C72,5.6,68,36.9,61.1,47.5c-5,7.7-15.3,10.3-29.4,12.3C14.4,62.2,0,73.7,0,91.2s14.2,28,31.7,28
			c24.2,0,30.9-24.4,65-24.5c28.1-0.1,50.9-12.4,50.9-41.5C147.7,26.5,126.6,0,103,0z"/>
		<line class="st1" x1="64" y1="16.4" x2="82" y2="27"/>
	</g>
</g>
</svg>
