<svg xmlns="http://www.w3.org/2000/svg" xmlns:xlink="http://www.w3.org/1999/xlink" viewBox="0 0 147.69 119.2"><defs><linearGradient id="Degrade_sans_nom_118" y1="59.6" x2="147.69" y2="59.6" gradientUnits="userSpaceOnUse"><stop offset="0" stop-color="#09c0dd"/><stop offset="1" stop-color="#b4d673"/></linearGradient></defs><title>Fichier 5</title><g id="Calque_2" data-name="Calque 2"><g id="Interface"><path d="M103,0V.25c22.83,0,44.41,25.75,44.41,53,0,13.66-5,24.23-14.81,31.4-8.75,6.39-21.15,9.78-35.87,9.82-18.57.06-29.21,7.4-38.6,13.87C50.24,113.79,42.75,119,31.73,119,13.2,119,.25,107.53.25,91.18c0-18.52,15.83-29,31.51-31.11,14.64-2,24.7-4.77,29.62-12.39,1.79-2.79,3.37-6.9,5.2-11.67C71.68,22.74,78.65,4.57,96.81.88A31,31,0,0,1,103,.25V0m0,0a31.23,31.23,0,0,0-6.27.63c-24.7,5-28.71,36.25-35.59,46.91-5,7.67-15.26,10.35-29.44,12.28C14.37,62.19,0,73.66,0,91.18s14.21,28,31.73,28c24.24,0,30.92-24.4,65-24.5,28.13-.08,50.93-12.41,50.93-41.47C147.69,26.53,126.63,0,103,0Z" style="fill:red"/><line x1="63.97" y1="16.37" x2="81.97" y2="27.04" style="fill:none;stroke:#fff;stroke-linecap:round;stroke-linejoin:round"/></g></g></svg>