<svg xmlns="http://www.w3.org/2000/svg" xmlns:xlink="http://www.w3.org/1999/xlink" viewBox="0 0 536.76 458.2"><defs><linearGradient id="Dégradé_sans_nom_104" x1="193.05" y1="212.83" x2="424.82" y2="212.83" gradientUnits="userSpaceOnUse"><stop offset="0" stop-color="#09c0dd"/><stop offset="0.26" stop-color="#0cc0db"/><stop offset="0.41" stop-color="#14c1d6"/><stop offset="0.54" stop-color="#22c3cd"/><stop offset="0.65" stop-color="#37c6c1"/><stop offset="0.76" stop-color="#51c9b0"/><stop offset="0.85" stop-color="#71cd9c"/><stop offset="0.94" stop-color="#97d285"/><stop offset="1" stop-color="#b4d673"/></linearGradient></defs><title>Fichier 2</title><g id="Calque_2" data-name="Calque 2"><g id="Interface"><g id="Casque_audio" data-name="Casque audio"><path d="M88.26,83.23H84.05V76.87H95.77v28.88H88.26Z" style="fill:#fff"/><path d="M420,258.53l.31-1.09A118.88,118.88,0,0,0,424.82,225a115.89,115.89,0,1,0-227.17,32.4l.32,1.09-.42,1.07A41.62,41.62,0,0,0,263.92,306l1.36-1.2,1.75.49a9.15,9.15,0,0,0,2.34.28,9.5,9.5,0,0,0,6.72-2.78l6.75-6.76a9.54,9.54,0,0,0,0-13.48l-54.18-54.18a9.49,9.49,0,0,0-13.42,0l-6.76,6.76a9.42,9.42,0,0,0-2.78,6.71,12.28,12.28,0,0,0,.32,2.51l.37,1.63-1.1,1.28c-.61.7-1.31,1.51-1.92,2.3l-4.43,5.66-1.45-7.06a114.92,114.92,0,0,1-2.32-23.07,113.43,113.43,0,0,1,42.48-88.65l2.89-2.34,2,3.13,1.55,2.43a11,11,0,0,0,9.39,5,11.33,11.33,0,0,0,5.74-1.6,95.89,95.89,0,0,1,99.78,0,11.1,11.1,0,0,0,15-3.44l1.57-2.45,2-3.11,2.88,2.33A113.46,113.46,0,0,1,423,225.08a115.88,115.88,0,0,1-2.32,23.07l-1.43,7-4.44-5.6c-.61-.76-1.29-1.56-1.95-2.33l-1.15-1.35.48-1.71a8.91,8.91,0,0,0,.27-2.34,9.41,9.41,0,0,0-2.77-6.71l-6.76-6.76a9.55,9.55,0,0,0-13.49,0l-54.35,54.18a9.56,9.56,0,0,0,0,13.48l6.76,6.76a9.44,9.44,0,0,0,6.71,2.78,11.78,11.78,0,0,0,2.52-.33l1.66-.37L354,306a41.61,41.61,0,0,0,66.36-46.41Zm-210.28-22,.1-.1,6.76-6.76a7.46,7.46,0,0,1,5.3-2.19,7.58,7.58,0,0,1,5.31,2.19l54.17,54.18a7.51,7.51,0,0,1,0,10.61l-6.74,6.76a7.54,7.54,0,0,1-10.61,0l-54.18-54.19a7.41,7.41,0,0,1-2.18-5.3A7.71,7.71,0,0,1,209.67,236.57Zm-4.61,14,2.32-3,56.19,56.19-2.94,2.33a39.56,39.56,0,0,1-52.42-3.15A39.6,39.6,0,0,1,205.06,250.52Zm169.05-115-1.9,3a9.1,9.1,0,0,1-12.33,2.83,97.84,97.84,0,0,0-101.89,0,8.92,8.92,0,0,1-4.68,1.31,9.07,9.07,0,0,1-7.65-4.14l-1.87-3-1.7-2.72,2.64-1.81a113.75,113.75,0,0,1,128.46,0l2.67,1.84ZM353.86,301.31a7.44,7.44,0,0,1-5.31,2.18,7.26,7.26,0,0,1-5.33-2.22l-6.72-6.72a7.51,7.51,0,0,1,0-10.61l54.16-54.17a7.52,7.52,0,0,1,10.61,0l6.75,6.75a7.52,7.52,0,0,1,0,10.62Zm55.8,1.62a39.62,39.62,0,0,1-52.47,3.15l-3-2.32,56.19-56.19,2.32,2.94a39.62,39.62,0,0,1-3.08,52.42Z" style="fill:url(#Dégradé_sans_nom_104)"/><path d="M91.14.1a91,91,0,0,1,80.38,48.3l.06.11.09-.07A227.7,227.7,0,0,1,536.58,224.76c0,1.75.08,3.68.08,5.89,0,1.41,0,2.87,0,4.29,0,.52,0,1.06,0,1.59l0,1.18c0,.77,0,1.57-.08,2.34a226.84,226.84,0,0,1-47,129.14l-.05.06.06.07.09.06a228.7,228.7,0,0,1-56,51.91,225.92,225.92,0,0,1-71.13,30.76.86.86,0,0,1,0-.15v-.13l-.13,0a227.82,227.82,0,0,1-245.12-98.43c-2-3.11-4-6.37-5.87-9.68a226.66,226.66,0,0,1-30.19-113.4,228.66,228.66,0,0,1,5.11-48.14l0-.12h-.12A91,91,0,0,1,91.14.1m0-.1a91.13,91.13,0,0,0-5.06,182.12,228.59,228.59,0,0,0,25.09,161.62c1.88,3.27,3.85,6.53,5.88,9.69A228.26,228.26,0,0,0,362.28,451.9a1.39,1.39,0,0,0,0,.27,228.1,228.1,0,0,0,127.4-82.83l-.18-.09a226.9,226.9,0,0,0,47-129.19c0-1.17.07-2.36.11-3.53,0-.53,0-1.07,0-1.59,0-1.42,0-2.85,0-4.29,0-2,0-3.94-.08-5.9C533.75,101.46,432.88,2.41,308.86,2.41a226.93,226.93,0,0,0-137.25,46A91.07,91.07,0,0,0,91.14,0Z" style="fill:#fff"/><path d="M91.13,27.11a64.09,64.09,0,0,1,64,64c0,1.12,0,2.26-.09,3.37A205,205,0,0,0,121,147.78,64,64,0,1,1,91.13,27.11m0-1A65,65,0,1,0,121.74,148.5,204.24,204.24,0,0,1,156,94.9c.07-1.25.11-2.51.11-3.77a65,65,0,0,0-65-65Z" style="fill:#fff"/><path d="M104.67,230.3A204.23,204.23,0,0,1,308.88,26.11c112.78,0,204.2,91.43,204.2,204.19s-91.42,204.2-204.2,204.2S104.67,343.08,104.67,230.3Z" style="fill:none;stroke:#fff;stroke-miterlimit:10"/></g></g></g></svg>