<svg xmlns="http://www.w3.org/2000/svg" xmlns:xlink="http://www.w3.org/1999/xlink" viewBox="0 0 1216.99 314.54"><defs><linearGradient id="Dégradé_sans_nom_104" x1="166.18" y1="157.27" x2="1050.81" y2="157.27" gradientUnits="userSpaceOnUse"><stop offset="0" stop-color="#09c0dd"/><stop offset="0.26" stop-color="#0cc0db"/><stop offset="0.41" stop-color="#14c1d6"/><stop offset="0.54" stop-color="#22c3cd"/><stop offset="0.65" stop-color="#37c6c1"/><stop offset="0.76" stop-color="#51c9b0"/><stop offset="0.85" stop-color="#71cd9c"/><stop offset="0.94" stop-color="#97d285"/><stop offset="1" stop-color="#b4d673"/></linearGradient><linearGradient id="Dégradé_sans_nom_104-2" x1="147.55" y1="157.27" x2="1069.44" y2="157.27" xlink:href="#Dégradé_sans_nom_104"/><linearGradient id="Dégradé_sans_nom_104-3" x1="0" y1="157.27" x2="1216.99" y2="157.27" xlink:href="#Dégradé_sans_nom_104"/></defs><title>Fichier 1</title><g id="Calque_2" data-name="Calque 2"><g id="Interface"><g id="Bouton_play" data-name="Bouton play"><polygon points="225.38 216.47 166.18 157.27 225.38 98.06 991.6 98.06 1050.81 157.27 991.6 216.47 225.38 216.47" style="fill:url(#Dégradé_sans_nom_104)"/><path d="M361.37,143.78v44.1h-14.7v-44.1H334.6V131.33h38.85v12.45Z"/><path d="M394.67,131.33v56.55H380V131.33Z"/><path d="M404,187.88l9.6-56.55h14.55l11.33,30.15,11.25-30.15h14.55l9.6,56.55H460.22l-4.87-32.55L442,187.88h-5.85l-12.68-32.55-4.87,32.55Z"/><path d="M516.32,143.78H498.85v9.45h16.5v12.45h-16.5v9.75h17.47v12.45H484.15V131.33h32.17Z"/><path d="M573.85,143.78v44.1H559.14v-44.1H547.07V131.33h38.85v12.45Z"/><path d="M589.37,159.61a29.57,29.57,0,0,1,2.33-11.74A29,29,0,0,1,608,132.05a35.92,35.92,0,0,1,25.24,0,29.62,29.62,0,0,1,9.93,6.33,29,29,0,0,1,6.49,9.49,30.74,30.74,0,0,1,0,23.48,29,29,0,0,1-6.49,9.48,29.65,29.65,0,0,1-9.93,6.34,35.92,35.92,0,0,1-25.24,0,29.26,29.26,0,0,1-18.64-27.56Zm15.38,0a15,15,0,0,0,1.27,6.22,15.62,15.62,0,0,0,8.51,8.22,16.34,16.34,0,0,0,17.33-3.27,15.69,15.69,0,0,0,3.49-4.95,15.89,15.89,0,0,0,0-12.45,15.69,15.69,0,0,0-3.49-4.95,16.52,16.52,0,0,0-17.33-3.26,15.56,15.56,0,0,0-8.51,8.21A15.09,15.09,0,0,0,604.75,159.61Z"/><path d="M701.49,187.88h-14.7V131.33h23.4q9.52,0,14.59,4.95t5.06,13.95q0,9-5.06,14t-14.59,4.95h-8.7Zm0-30.6h4.88q8.1,0,8.1-7.05t-8.1-7h-4.88Z"/><path d="M752.34,131.33v44.1H770v12.45H737.64V131.33Z"/><path d="M814.52,178.06h-21l-3.38,9.82H774.47L796,131.33h16l21.53,56.55H817.89Zm-3.9-11.18L804,148.06l-6.6,18.82Z"/><path d="M848.34,160.73l-20.62-29.4h17.55l10.5,15.45,10.42-15.45h17.55L863,160.73v27.15h-14.7Z"/><path d="M995.11,88.68l68.6,68.59-68.6,68.59H221.87l-68.59-68.59,68.59-68.59H995.11m1.68-4.06H220.19l-72.64,72.65,72.64,72.65h776.6l72.65-72.65L996.79,84.62Z" style="fill:url(#Dégradé_sans_nom_104-2)"/><path d="M1059.59.31l157,157-157,157H157.4l-157-157,157-157h902.19m.13-.31H157.27L0,157.27,157.27,314.54h902.45L1217,157.27,1059.72,0Z" style="fill:url(#Dégradé_sans_nom_104-3)"/></g></g></g></svg>